<?xml version="1.0" encoding="UTF-8"?>
<level>
  <owner>Fistachka</owner>
  <repo>fantazer5</repo>
  <version>v1.0.0</version>
  <next number="1" owner="Fistachka" repo="fantazer4"/>
  <readme>
    <ru>70fb2c57e3d1b4939e17f8cac3aef2e6417be7c458f0761dd6ade6c9f6ee2b98</ru>
    <en>ddfdf68d78b314d51f104ace17f69ee14e6a098925083b3fa84bc1e3741f7690</en>
  </readme>
  <license>b1b99f5538d1fd3702219bff50c665196dfa42f6ee755c37fe41a6178d6bc6e5</license>
  <exercise number="1">
    <scale>minor</scale>
    <cadenceVariant>harmonic</cadenceVariant>
    <bpm>131</bpm>
    <lowestNote>4</lowestNote>
    <tonalities>1</tonalities>
    <video name="21.mp4" size="2042210" type="video/mp4" volume="0.5">33ca14327308b72d4a3eff41d5895073138e9dd34a23a5dfa1047c5c1ecfa25a</video>
    <notes>
      <note number="1" values="18" ticks="164" durationTicks="95" ppq="96" velocity="0.78"/>
      <note number="2" values="38" ticks="258" durationTicks="45" ppq="96" velocity="0.772"/>
      <note number="3" values="4" ticks="308" durationTicks="96" ppq="96" velocity="0.827"/>
    </notes>
  </exercise>
  <exercise number="2">
    <scale>minor</scale>
    <cadenceVariant>harmonic</cadenceVariant>
    <bpm>131</bpm>
    <lowestNote>4</lowestNote>
    <tonalities>1</tonalities>
    <video name="22.mp4" size="2453949" type="video/mp4" volume="0.5">7ece428dfce090e96a8f315edf69218fe424c35302a87bc1d9b3abaa4dd073f2</video>
    <notes>
      <note number="1" values="48" ticks="148" durationTicks="34" ppq="96" velocity="0.78"/>
      <note number="2" values="48" ticks="196" durationTicks="29" ppq="96" velocity="0.772"/>
      <note number="3" values="48" ticks="244" durationTicks="31" ppq="96" velocity="0.827"/>
      <note number="4" values="48" ticks="292" durationTicks="31" ppq="96" velocity="0.772"/>
      <note number="5" values="48" ticks="341" durationTicks="28" ppq="96" velocity="0.772"/>
      <note number="6" values="48" ticks="388" durationTicks="95" ppq="96" velocity="0.819"/>
      <note number="7" values="38" ticks="483" durationTicks="190" ppq="96" velocity="0.819"/>
    </notes>
  </exercise>
  <exercise number="3">
    <scale>minor</scale>
    <cadenceVariant>harmonic</cadenceVariant>
    <bpm>131</bpm>
    <lowestNote>4</lowestNote>
    <tonalities>1</tonalities>
    <video name="23.mp4" size="1706549" type="video/mp4" volume="0.5">3914d2413173a75f50bbc4c215eacb12754e87425cf3ef59181f3397e91a55df</video>
    <notes>
      <note number="1" values="18" ticks="112" durationTicks="95" ppq="96" velocity="0.78"/>
      <note number="2" values="38" ticks="206" durationTicks="45" ppq="96" velocity="0.772"/>
      <note number="3" values="4" ticks="256" durationTicks="96" ppq="96" velocity="0.827"/>
    </notes>
  </exercise>
  <exercise number="4">
    <scale>minor</scale>
    <cadenceVariant>harmonic</cadenceVariant>
    <bpm>131</bpm>
    <lowestNote>4</lowestNote>
    <tonalities>1</tonalities>
    <video name="24.mp4" size="2399709" type="video/mp4" volume="0.5">cb8b807c99b605abddd37263ab0b51488b84a522b819f711cccf5bc5332ede1a</video>
    <notes>
      <note number="1" values="28" ticks="114" durationTicks="34" ppq="96" velocity="0.78"/>
      <note number="2" values="28" ticks="162" durationTicks="29" ppq="96" velocity="0.772"/>
      <note number="3" values="28" ticks="210" durationTicks="31" ppq="96" velocity="0.827"/>
      <note number="4" values="28" ticks="258" durationTicks="31" ppq="96" velocity="0.772"/>
      <note number="5" values="28" ticks="307" durationTicks="28" ppq="96" velocity="0.772"/>
      <note number="6" values="38" ticks="354" durationTicks="42" ppq="96" velocity="0.819"/>
      <note number="7" values="28" ticks="404" durationTicks="92" ppq="96" velocity="0.819"/>
      <note number="8" values="18" ticks="499" durationTicks="186" ppq="96" velocity="0.8"/>
    </notes>
  </exercise>
  <exercise number="5">
    <scale>minor</scale>
    <cadenceVariant>harmonic</cadenceVariant>
    <bpm>131</bpm>
    <lowestNote>4</lowestNote>
    <tonalities>1</tonalities>
    <video name="25.mp4" size="2489451" type="video/mp4" volume="0.5">bef8ad157353054be1c59cf6bebcd3a6a8069f062b182f0c64fe2d8452c91d71</video>
    <notes>
      <note number="1" values="18" ticks="188" durationTicks="95" ppq="96" velocity="0.78"/>
      <note number="2" values="38" ticks="282" durationTicks="45" ppq="96" velocity="0.772"/>
      <note number="3" values="4" ticks="332" durationTicks="96" ppq="96" velocity="0.827"/>
    </notes>
  </exercise>
  <exercise number="6">
    <scale>minor</scale>
    <cadenceVariant>harmonic</cadenceVariant>
    <bpm>131</bpm>
    <lowestNote>4</lowestNote>
    <tonalities>1</tonalities>
    <video name="26.mp4" size="2705708" type="video/mp4" volume="0.5">6273374c3a73b2d0f93519b00e32ea88b93e73bf49cac041553d522bd05edf8b</video>
    <notes>
      <note number="1" values="48" ticks="112" durationTicks="34" ppq="96" velocity="0.78"/>
      <note number="2" values="48" ticks="193" durationTicks="29" ppq="96" velocity="0.772"/>
      <note number="3" values="48" ticks="241" durationTicks="31" ppq="96" velocity="0.827"/>
      <note number="4" values="48" ticks="318" durationTicks="31" ppq="96" velocity="0.772"/>
      <note number="5" values="48" ticks="382" durationTicks="29" ppq="96" velocity="0.772"/>
      <note number="6" values="48" ticks="431" durationTicks="109" ppq="96" velocity="0.819"/>
      <note number="7" values="38" ticks="588" durationTicks="169" ppq="96" velocity="0.787"/>
    </notes>
  </exercise>
  <exercise number="7">
    <scale>minor</scale>
    <cadenceVariant>harmonic</cadenceVariant>
    <bpm>131</bpm>
    <lowestNote>4</lowestNote>
    <tonalities>1</tonalities>
    <video name="27.mp4" size="2227304" type="video/mp4" volume="0.5">fba620162342d73510bb7e9865cbcb07b5d1d48d01db853cd444a20f3ed39bd6</video>
    <notes>
      <note number="1" values="18" ticks="90" durationTicks="95" ppq="96" velocity="0.78"/>
      <note number="2" values="38" ticks="186" durationTicks="45" ppq="96" velocity="0.772"/>
      <note number="3" values="4" ticks="236" durationTicks="96" ppq="96" velocity="0.827"/>
    </notes>
  </exercise>
  <exercise number="8">
    <scale>minor</scale>
    <cadenceVariant>harmonic</cadenceVariant>
    <bpm>131</bpm>
    <lowestNote>4</lowestNote>
    <tonalities>1</tonalities>
    <video name="28t.mp4" size="1515346" type="video/mp4" volume="0.5">f5fbf7c537c75714e9a4a2f2f576b1997badd8a7b529b31ba1c9a12902ee0f94</video>
    <notes>
      <note number="1" values="28" ticks="78" durationTicks="49" ppq="96" velocity="0.78"/>
      <note number="2" values="28" ticks="184" durationTicks="29" ppq="96" velocity="0.772"/>
      <note number="3" values="28" ticks="232" durationTicks="31" ppq="96" velocity="0.827"/>
      <note number="4" values="28" ticks="280" durationTicks="31" ppq="96" velocity="0.772"/>
      <note number="5" values="38" ticks="329" durationTicks="28" ppq="96" velocity="0.772"/>
      <note number="6" values="28" ticks="376" durationTicks="95" ppq="96" velocity="0.819"/>
      <note number="7" values="18" ticks="471" durationTicks="190" ppq="96" velocity="0.819"/>
    </notes>
  </exercise>
</level>
